<svg xmlns="http://www.w3.org/2000/svg"  viewBox="0 0 64 64" width="96px" height="96px"><g data-name="Fill Outline"><polygon fill="#d0d8da" points="35.804 3 23.804 23.785 33.33 29.285 32.598 26.553 35.33 25.821 33.732 22.588 36.464 21.856 34.866 18.624 37.598 17.892 36 14.66 38.732 13.928 38 11.196 40.732 10.464 41 6 35.804 3"/><path fill="#93999a" d="M34.866,18.624l.307-.082a4.99,4.99,0,0,1-.869-6.088l4.469-7.74L35.8,3l-12,20.785,9.526,5.5L32.6,26.553l2.732-.733-1.6-3.232,2.732-.732Z"/><rect width="12" height="12" x="8.464" y="41.536" fill="#fcbc04" rx="2" transform="rotate(-120 14.465 47.536)"/><path fill="#e59730" d="M13.069,41.413a6,6,0,0,1-2.605,7.319L8.786,49.7,11.268,54A2,2,0,0,0,14,54.732l6.929-4A2,2,0,0,0,21.661,48l-4-6.929a2,2,0,0,0-2.732-.732Z"/><circle cx="14.464" cy="47.536" r="2" fill="#f89c8d"/><path fill="#f8664f" d="M14.037,48.009a1.989,1.989,0,0,1-1.446.212,2.052,2.052,0,0,0,.141.315,2,2,0,1,0,2.178-2.944A2,2,0,0,1,14.037,48.009Z"/><rect width="20" height="8" x="3.66" y="31.464" fill="#84d2f4" transform="rotate(30 13.66 35.464)"/><path fill="#57b7eb" d="M13.648,30.838a4.987,4.987,0,0,1-6.658,1.59L4.647,31.075,3,33.928l17.32,10,4-6.928Z"/><g><rect width="11" height="10" x="10.581" y="6.042" fill="#d0d8da" transform="rotate(-45 16.082 11.043)"/><rect width="4" height="10" x="5.95" y="14.174" fill="#d0d8da" transform="rotate(-45 7.95 19.174)"/><rect width="4" height="6" x="8.778" y="13.346" fill="#656b76" transform="rotate(-45 10.778 16.345)"/><path fill="#d0d8da" d="M27.042,4.325l-.065.018A6.934,6.934,0,0,0,22.11,9.21l-.018.065L17.849,5.032h0a6.937,6.937,0,0,1,8.008-1.3Z"/><rect width="6" height="20" x="24.042" y="11.295" fill="#57b7eb" transform="rotate(-45 27.042 21.296)"/><path fill="#93999a" d="M18.556,11.639a4,4,0,0,1-5.657,0L10.657,9.4l-2,2,7.071,7.071,7.778-7.778-2-2Z"/><path fill="#93999a" d="M7.95,20,4,16.053l-1,1,7.071,7.071L12.9,21.3,11.87,20.266A2.991,2.991,0,0,1,7.95,20Z"/><path fill="#93999a" d="M24.877,3.336A6.949,6.949,0,0,0,23.045,5.19a1.778,1.778,0,0,1-2.751.287L18.965,4.148a6.892,6.892,0,0,0-1.116.884h0l4.243,4.243.017-.065a6.937,6.937,0,0,1,4.868-4.867l.065-.018-1.185-.592A6.959,6.959,0,0,0,24.877,3.336Z"/><path fill="#4891d3" d="M25.234,15.245l-1.268,1.268a1.379,1.379,0,0,1-1.949,0h0a1.38,1.38,0,0,1,0-1.95L23.284,13.3,22.092,12.1l-4.243,4.243L31.991,30.488l4.243-4.243Z"/></g><g><polygon fill="#93999a" points="34.652 29 33.205 27.553 48.761 11.996 53.004 16.239 41.823 27.419 34.652 29"/><path fill="#656b76" d="M47.675,13.082,42.761,18a7.845,7.845,0,0,0,.586.657,7.962,7.962,0,0,0,4.934,2.309L53,16.239l-1.5-1.5-1.086,1.086Z"/><path fill="#d0d8da" d="M60.367,8.876l-5.949,5.949-4.243-4.243,5.949-5.949a8,8,0,1,0,4.243,4.243Z"/><path fill="#93999a" d="M59.66,13.653a7.994,7.994,0,0,1-13.65-5.53,7.993,7.993,0,1,0,14.97,3.763A7.922,7.922,0,0,1,59.66,13.653Z"/></g><path fill="#f9e109" d="M59,44V34H54.281a17.9,17.9,0,0,0-1.52-3.69l3.331-3.331-7.071-7.071L45.69,23.239A17.918,17.918,0,0,0,42,21.719V17H32v4.719a17.918,17.918,0,0,0-3.69,1.52l-3.331-3.331-7.071,7.071,3.331,3.331A17.9,17.9,0,0,0,19.719,34H15V44h4.719a17.918,17.918,0,0,0,1.52,3.69l-3.331,3.331,7.071,7.071,3.331-3.331A17.918,17.918,0,0,0,32,56.281V61H42V56.281a17.918,17.918,0,0,0,3.69-1.52l3.331,3.331,7.071-7.071L52.761,47.69A17.918,17.918,0,0,0,54.281,44ZM37,48a9,9,0,1,1,9-9A9,9,0,0,1,37,48Z"/><path fill="#fcbc04" d="M49,54A26,26,0,0,1,23.99,20.9l-6.082,6.082,3.331,3.331A17.9,17.9,0,0,0,19.719,34H15V44h4.719a17.918,17.918,0,0,0,1.52,3.69l-3.331,3.331,7.071,7.071,3.331-3.331A17.918,17.918,0,0,0,32,56.281V61H42V56.281a17.918,17.918,0,0,0,3.69-1.52l3.331,3.331,4.49-4.49A26.1,26.1,0,0,1,49,54Z"/><g data-name="Outline copy"><path fill="#323232" d="M59,33H55.019a19.028,19.028,0,0,0-1.031-2.5l2.811-2.81a1,1,0,0,0,0-1.415L51.366,20.84A9.1,9.1,0,0,0,53,20.992,8.992,8.992,0,0,0,61.287,8.486a1,1,0,0,0-1.628-.317l-3.487,3.488a1,1,0,1,0,1.414,1.414l2.308-2.307a7,7,0,1,1-5.658-5.658L49.468,9.875a1,1,0,0,0,0,1.414l4.243,4.243a1,1,0,0,0,1.414-1.414l-3.536-3.536,5.242-5.241a1,1,0,0,0-.317-1.628A8.988,8.988,0,0,0,44.483,14.861L42.846,16.5A.987.987,0,0,0,42,16H37.778l-.341-.689,1.554-.417a1,1,0,0,0,.707-1.225L39.225,11.9l1.766-.473a1,1,0,0,0,.739-.907L42,6.06a1,1,0,0,0-.5-.926l-5.2-3a1,1,0,0,0-1.367.366l-7.7,13.336L23.505,12.1l.708-.707a1,1,0,0,0,0-1.415l-.977-.976A5.99,5.99,0,0,1,27.3,5.291a1,1,0,0,0,.187-1.86L26.3,2.838a7.911,7.911,0,0,0-8.4.836l-.763-.763a1,1,0,0,0-1.414,0l-2.5,2.494a1,1,0,0,0,1.414,1.414l1.789-1.787,5.656,5.656-6.364,6.365L10.071,11.4l1.748-1.749a1,1,0,0,0-1.414-1.414L7.95,10.689a1,1,0,0,0,0,1.415l.707.706L7.242,14.225l-.707-.707a1,1,0,0,0-1.414,0L2.293,16.346a1,1,0,0,0,0,1.414l7.071,7.071a1,1,0,0,0,1.414,0L13.606,22a1,1,0,0,0,0-1.414l-.707-.708,1.414-1.414.708.707a1,1,0,0,0,1.414,0l1.414-1.415,3.933,3.933L17.2,26.272a1,1,0,0,0,0,1.415l2.811,2.81a18.881,18.881,0,0,0-.958,2.308L7.5,26.134a1,1,0,0,0-1.366.366l-4,6.928A1,1,0,0,0,2.5,34.794l9.945,5.742L7.294,43.51a3,3,0,0,0-1.1,4.1l4,6.929a3,3,0,0,0,.657.775L5.5,58.4a1,1,0,0,0-.366,1.367l1,1.732a1,1,0,1,0,1.732-1l-.5-.866L15,55.225l3.612-2.085L24.272,58.8a1,1,0,0,0,1.415,0l2.81-2.811A19.028,19.028,0,0,0,31,57.019V61a1,1,0,0,0,1,1H42a1,1,0,0,0,1-1V57.019a19.028,19.028,0,0,0,2.5-1.031l2.81,2.811a1,1,0,0,0,1.415,0L56.8,51.728a1,1,0,0,0,0-1.415L53.988,47.5A19.028,19.028,0,0,0,55.019,45H59a1,1,0,0,0,0-2H54.281a1,1,0,0,0-.961.723,16.93,16.93,0,0,1-1.434,3.483,1,1,0,0,0,.168,1.19l2.624,2.625-5.657,5.657L46.4,54.054a1,1,0,0,0-1.19-.168,16.93,16.93,0,0,1-3.483,1.434,1,1,0,0,0-.723.961V60H33V56.281a1,1,0,0,0-.723-.961,16.93,16.93,0,0,1-3.483-1.434,1,1,0,0,0-1.19.168l-2.625,2.624-5.657-5.657L21.946,48.4a1,1,0,0,0,.168-1.19,16.93,16.93,0,0,1-1.434-3.483A1,1,0,0,0,19.719,43H16V35h3.719a1,1,0,0,0,.961-.723,16.93,16.93,0,0,1,1.434-3.483,1,1,0,0,0-.168-1.19l-2.624-2.625,5.657-5.657L27.6,23.946a1,1,0,0,0,1.19.168,16.93,16.93,0,0,1,3.483-1.434A1,1,0,0,0,33,21.719V18h8v3.719a1,1,0,0,0,.723.961,16.93,16.93,0,0,1,3.483,1.434,1,1,0,0,0,1.19-.168l2.625-2.624,5.657,5.657L52.054,29.6a1,1,0,0,0-.168,1.19,16.93,16.93,0,0,1,1.434,3.483,1,1,0,0,0,.961.723H58v5a1,1,0,0,0,2,0V34A1,1,0,0,0,59,33ZM10.071,22.71,4.414,17.053l1.414-1.414L11.485,21.3Zm1.414-4.243L8.656,15.639l1.415-1.415L12.9,17.053Zm-4.119,9.9,1.732,1-1.5,2.6a1,1,0,1,0,1.732,1l1.5-2.6,1.732,1-1.5,2.6a1,1,0,1,0,1.732,1l1.5-2.6,1.1.634H15a1,1,0,0,0-1,1v5.124L4.366,33.562Zm7.151,18.239a1,1,0,0,1,.242,1.833,1.017,1.017,0,0,1-.76.1,1,1,0,0,1,.258-1.967A1.049,1.049,0,0,1,14.517,46.605ZM18.981,45a19.028,19.028,0,0,0,1.031,2.5L17.2,50.313a.994.994,0,0,0-.039,1.356L13.293,53.9a1,1,0,0,1-.758.1.987.987,0,0,1-.606-.466l-4-6.93a1,1,0,0,1,.365-1.364L14,41.948V44a.976.976,0,0,0,.21.584,2.994,2.994,0,0,0-.729,5.886,3.038,3.038,0,0,0,.782.1A2.989,2.989,0,0,0,15.779,45ZM24.613,4.3a8.015,8.015,0,0,0-2.9,3.188L19.33,5.1A5.933,5.933,0,0,1,24.613,4.3ZM28.5,22.012,25.687,19.2a1,1,0,0,0-1.415,0L23.2,20.278l-3.933-3.933,2.828-2.828,7.856,7.855C29.453,21.568,28.967,21.778,28.5,22.012ZM32,16a1,1,0,0,0-1,1v2.6l-2.3-2.3L36.17,4.366l3.8,2.191-.188,3.128-2.036.545a1,1,0,0,0-.707,1.225l.474,1.766-1.767.473A1,1,0,0,0,35.1,15.1l.443.9Zm13.5,6.012A19.028,19.028,0,0,0,43,20.981V19.172l2.389-2.39a8.875,8.875,0,0,0,2.634,2.71Z"/><path fill="#323232" d="M37,31a7.983,7.983,0,0,1,4.252,1.232,1,1,0,1,0,1.066-1.691,10.022,10.022,0,1,0,3.141,3.141,1,1,0,1,0-1.691,1.066A7.995,7.995,0,1,1,37,31Z"/></g></g></svg>