<svg xmlns="http://www.w3.org/2000/svg" xmlns:xlink="http://www.w3.org/1999/xlink" viewBox="0,0,255.99083,255.99083" width="96px" height="96px" fill-rule="nonzero"><g fill="#20c997" fill-rule="nonzero" stroke="none" stroke-width="1" stroke-linecap="butt" stroke-linejoin="miter" stroke-miterlimit="10" stroke-dasharray="" stroke-dashoffset="0" font-family="none" font-weight="none" font-size="none" text-anchor="none" style="mix-blend-mode: normal"><g transform="scale(2,2)"><path d="M32,6c-7.2,0 -13,5.8 -13,13v90c0,7.2 5.8,13 13,13h64c7.2,0 13,-5.8 13,-13v-66c0,-1.7 -1.3,-3 -3,-3c-1.7,0 -3,1.3 -3,3v66c0,3.9 -3.1,7 -7,7h-64c-3.9,0 -7,-3.1 -7,-7v-90c0,-3.9 3.1,-7 7,-7h51v7c0,7.2 5.8,13 13,13h10c1.7,0 3,-1.3 3,-3c0,-12.7 -10.3,-23 -23,-23zM89,12.30078c7,1.2 12.49922,6.69922 13.69922,13.69922h-6.69922c-3.9,0 -7,-3.1 -7,-7zM49,47.09961c-4.14214,0 -7.5,3.35786 -7.5,7.5c0,4.14214 3.35786,7.5 7.5,7.5c4.14214,0 7.5,-3.35786 7.5,-7.5c0,-4.14214 -3.35786,-7.5 -7.5,-7.5zM79,47.09961c-4.14214,0 -7.5,3.35786 -7.5,7.5c0,4.14214 3.35786,7.5 7.5,7.5c4.14214,0 7.5,-3.35786 7.5,-7.5c0,-4.14214 -3.35786,-7.5 -7.5,-7.5zM51.80078,71.90039c-1.2,0 -2.2,1.09883 -2,2.29883c1.1,7.2 7.29883,12.70117 14.79883,12.70117c7.5,0 13.70078,-5.50117 14.80078,-12.70117c0.2,-1.2 -0.7,-2.29883 -2,-2.29883z"></path></g></g></svg>